<svg version="1.0" xmlns="http://www.w3.org/2000/svg" preserveAspectRatio="xMidYMid meet" viewBox="0 223 1280 194"> <metadata> Created by potrace 1.15, written by Peter Selinger 2001-2017 </metadata> <g transform="translate(0.000000,640.000000) scale(0.100000,-0.100000)" fill="#F5F5DC" stroke="none"> <path d="M0 3200 l0 -970 505 0 505 0 0 110 0 110 110 0 110 0 0 215 0 215 1795 0 1795 0 0 -40 0 -40 -215 0 -215 0 0 -175 0 -175 285 0 285 0 0 110 0 110 220 0 220 0 0 105 0 105 380 0 380 0 0 70 0 70 -380 0 -380 0 0 40 0 40 380 0 380 0 0 100 0 100 -380 0 -380 0 0 40 0 40 380 0 380 0 0 70 0 70 -380 0 -379 0 -3 106 -3 106 -217 -2 -218 -1 0 111 0 110 -285 0 -285 0 0 -175 0 -175 215 0 215 0 0 -40 0 -40 -1795 0 -1795 0 0 215 0 214 -107 3 -108 3 -3 108 -3 107 -504 0 -505 0 0 -970z m988 853 l-3 -98 -40 0 -40 0 -3 53 -3 52 -395 0 -394 0 0 -395 0 -395 275 0 275 0 0 -70 0 -70 -275 0 -275 0 0 -395 0 -395 395 0 395 0 0 56 0 55 43 -3 42 -3 3 -98 3 -97 -483 2 -483 3 -3 935 c-1 514 0 941 3 948 3 9 110 12 485 12 l481 0 -3 -97z m-110 -55 l-3 -43 -327 -3 -328 -2 0 -285 0 -285 110 0 110 0 0 -40 0 -40 -155 0 -155 0 0 370 0 370 376 0 375 0 -3 -42z m332 -273 l0 -205 -45 0 -45 0 -2 163 -3 162 -390 0 -390 0 -3 -177 -2 -178 55 0 55 0 0 -40 0 -40 -100 0 -100 0 0 260 0 260 485 0 485 0 0 -205z m3720 -55 l0 -260 -1960 0 -1960 0 0 40 0 40 1920 0 1920 0 -2 178 -3 177 -175 0 -175 0 0 -65 0 -65 163 -3 162 -2 0 -40 0 -40 -205 0 -205 0 0 150 0 150 260 0 260 0 0 -260z m-4050 0 l0 -150 -45 0 -45 0 0 105 0 105 -175 0 -175 0 0 -105 0 -105 -45 0 -45 0 0 150 0 150 265 0 265 0 0 -150z m110 -110 l0 -260 -45 0 -45 0 0 260 0 260 45 0 45 0 0 -260z m110 110 l0 -150 -45 0 -45 0 0 150 0 150 45 0 45 0 0 -150z m3720 105 l0 -46 -147 3 -148 3 -3 43 -3 42 150 0 151 0 0 -45z m-4050 -160 l0 -95 -45 0 -45 0 0 55 0 55 -65 0 -65 0 0 -165 0 -165 -45 0 -45 0 0 205 0 205 155 0 155 0 0 -95z m4600 0 l0 -95 -39 0 -40 0 -3 53 -3 52 -162 3 -163 2 0 40 0 40 205 0 205 0 0 -95z m-4710 -55 l0 -40 -45 0 -45 0 0 40 0 40 45 0 45 0 0 -40z m4600 0 l0 -39 -107 -3 -108 -3 -3 -107 -3 -108 -1904 0 -1905 0 0 40 0 40 1865 0 1865 0 0 110 0 110 150 0 150 0 0 -40z m-4380 -110 l0 -40 -155 0 -155 0 0 40 0 40 155 0 155 0 0 -40z m5260 0 l0 -40 -492 -2 -493 -3 -3 -52 -3 -53 -40 0 -39 0 0 95 0 95 535 0 535 0 0 -40z m-5480 -110 l0 -40 -45 0 -45 0 0 40 0 40 45 0 45 0 0 -40z m110 -140 l0 -180 -45 0 -45 0 0 180 0 180 45 0 45 0 0 -180z m110 140 l0 -40 -45 0 -45 0 0 40 0 40 45 0 45 0 0 -40z m220 0 l0 -40 -45 0 -45 0 0 40 0 40 45 0 45 0 0 -40z m110 -140 l0 -180 -45 0 -45 0 0 180 0 180 45 0 45 0 0 -180z m4050 140 l0 -40 -40 0 -40 0 0 40 0 40 40 0 40 0 0 -40z m110 -140 l0 -180 -40 0 -40 0 0 180 0 180 40 0 40 0 0 -180z m-4270 0 l0 -70 -155 0 -155 0 0 70 0 70 155 0 155 0 0 -70z m4160 0 l0 -70 -2015 0 -2015 0 0 70 0 70 2015 0 2015 0 0 -70z m880 0 l0 -70 -370 0 -370 0 0 70 0 70 370 0 370 0 0 -70z m-5700 -140 l0 -40 -110 0 -110 0 0 -285 0 -285 328 -2 327 -3 3 -43 3 -42 -373 2 -373 3 -3 368 -2 367 155 0 155 0 0 -40z m110 -125 l0 -165 65 0 65 0 0 55 0 55 45 0 45 0 0 -95 0 -95 -155 0 -155 0 0 205 0 205 45 0 45 0 0 -165z m110 125 l0 -40 -45 0 -45 0 0 40 0 40 45 0 45 0 0 -40z m220 0 l0 -40 -45 0 -45 0 0 40 0 40 45 0 45 0 0 -40z m110 -220 l0 -260 -45 0 -45 0 0 260 0 260 45 0 45 0 0 -260z m110 220 l0 -40 -45 0 -45 0 0 40 0 40 45 0 45 0 0 -40z m3942 -67 l3 -108 108 -3 107 -3 0 -39 0 -40 -150 0 -150 0 0 110 0 110 -1865 0 -1865 0 0 40 0 40 1905 0 1904 0 3 -107z m110 55 l3 -53 493 -3 492 -2 0 -40 0 -40 -535 0 -535 0 0 95 0 95 39 0 40 0 3 -52z m108 12 l0 -40 -40 0 -40 0 0 40 0 40 40 0 40 0 0 -40z m-4820 -110 l0 -40 -55 0 -55 0 0 -175 0 -175 395 0 395 0 0 160 0 160 45 0 45 0 0 -205 0 -205 -482 2 -483 3 -3 258 -2 257 100 0 100 0 0 -40z m440 0 l0 -40 -155 0 -155 0 0 40 0 40 155 0 155 0 0 -40z m4050 -220 l0 -260 -260 0 -261 0 3 150 3 151 203 2 202 2 0 -42 0 -43 -162 -2 -163 -3 -3 -62 -3 -63 181 0 180 0 0 175 0 175 -1920 0 -1920 0 0 40 0 40 1960 0 1960 0 0 -260z m-4490 44 l0 -104 175 0 175 0 0 105 0 105 45 0 45 0 0 -150 0 -150 -265 0 -265 0 0 148 c0 82 2 151 4 153 3 3 23 3 45 1 l41 -4 0 -104z m220 65 l0 -39 -45 0 -45 0 0 38 c0 21 2 41 4 43 3 3 23 3 45 1 40 -4 41 -5 41 -43z m440 -109 l0 -150 -45 0 -45 0 0 150 0 150 45 0 45 0 0 -150z m4270 55 l0 -95 -205 0 -205 0 0 40 0 40 150 1 c83 1 156 2 163 3 7 1 13 21 15 54 l3 52 40 0 39 0 0 -95z m-550 -160 l0 -45 -150 0 -150 0 0 45 0 45 150 0 150 0 0 -45z"></path> <path d="M11788 4063 l-3 -108 -107 -3 -108 -3 0 -214 0 -215 -1795 0 -1795 0 0 40 0 40 215 0 215 0 0 175 0 175 -285 0 -285 0 0 -110 0 -111 -217 1 -218 2 -3 -106 -3 -106 -379 0 -380 0 0 -70 0 -70 380 0 380 0 0 -40 0 -40 -380 0 -380 0 0 -100 0 -100 380 0 380 0 0 -40 0 -40 -380 0 -380 0 0 -70 0 -70 380 0 380 0 0 -105 0 -105 220 0 220 0 0 -110 0 -110 285 0 285 0 0 175 0 175 -215 0 -215 0 0 40 0 40 1795 0 1795 0 0 -215 0 -215 110 0 110 0 0 -110 0 -110 505 0 505 0 0 970 0 970 -505 0 -504 0 -3 -107z m987 -863 l0 -945 -483 -3 -483 -2 3 97 3 98 43 3 42 3 0 -55 0 -56 395 0 395 0 0 395 0 395 -275 0 -275 0 0 70 0 70 275 0 275 0 0 395 0 395 -394 0 -395 0 -3 -52 -3 -53 -40 0 -40 0 -3 98 -3 97 483 -2 483 -3 0 -945z m-105 470 l0 -370 -155 0 -155 0 0 40 0 40 110 0 110 0 0 285 0 285 -327 2 -328 3 -3 43 -3 42 375 0 376 0 0 -370z m-4280 110 l0 -150 -205 0 -205 0 0 40 0 40 163 2 162 3 0 65 0 65 -175 0 -175 0 -3 -177 -2 -178 1920 0 1920 0 0 -40 0 -40 -1960 0 -1960 0 0 260 0 260 260 0 260 0 0 -150z m4170 -110 l0 -260 -100 0 -100 0 0 40 0 40 55 0 55 0 -2 178 -3 177 -390 0 -390 0 -3 -162 -2 -163 -45 0 -45 0 0 205 0 205 485 0 485 0 0 -260z m-4282 108 l-3 -43 -147 -3 -148 -3 0 46 0 45 151 0 150 0 -3 -42z m3512 -108 l0 -150 -45 0 -45 0 0 150 0 150 45 0 45 0 0 -150z m110 -110 l0 -260 -45 0 -45 0 0 260 0 260 45 0 45 0 0 -260z m550 110 l0 -150 -45 0 -45 0 0 105 0 105 -175 0 -175 0 0 -105 0 -105 -45 0 -45 0 0 150 0 150 265 0 265 0 0 -150z m-4610 0 l0 -40 -162 -2 -163 -3 -3 -52 -3 -53 -40 0 -39 0 0 95 0 95 205 0 205 0 0 -40z m4500 -165 l0 -205 -45 0 -45 0 0 165 0 165 -65 0 -65 0 0 -55 0 -55 -45 0 -45 0 0 95 0 95 155 0 155 0 0 -205z m-4500 -15 l0 -110 1865 0 1865 0 0 -40 0 -40 -1905 0 -1904 0 -3 108 -3 107 -107 3 -108 3 0 39 0 40 150 0 150 0 0 -110z m4390 70 l0 -40 -45 0 -45 0 0 40 0 40 45 0 45 0 0 -40z m-4500 -165 l0 -95 -39 0 -40 0 -3 53 -3 52 -492 3 -493 2 0 40 0 40 535 0 535 0 0 -95z m4500 55 l0 -40 -155 0 -155 0 0 40 0 40 155 0 155 0 0 -40z m-4720 -250 l0 -180 -40 0 -40 0 0 180 0 180 40 0 40 0 0 -180z m110 140 l0 -40 -40 0 -40 0 0 40 0 40 40 0 40 0 0 -40z m4060 -140 l0 -180 -45 0 -45 0 0 180 0 180 45 0 45 0 0 -180z m110 140 l0 -40 -45 0 -45 0 0 40 0 40 45 0 45 0 0 -40z m220 0 l0 -40 -45 0 -45 0 0 40 0 40 45 0 45 0 0 -40z m110 -140 l0 -180 -45 0 -45 0 0 180 0 180 45 0 45 0 0 -180z m110 140 l0 -40 -45 0 -45 0 0 40 0 40 45 0 45 0 0 -40z m-4830 -140 l0 -70 -370 0 -370 0 0 70 0 70 370 0 370 0 0 -70z m4170 0 l0 -70 -2015 0 -2015 0 0 70 0 70 2015 0 2015 0 0 -70z m440 0 l0 -70 -155 0 -155 0 0 70 0 70 155 0 155 0 0 -70z m-4390 -140 l0 -40 -40 0 -40 0 0 40 0 40 40 0 40 0 0 -40z m110 -55 l0 -95 -535 0 -535 0 0 40 0 40 493 2 492 3 3 53 3 52 40 0 39 0 0 -95z m3840 55 l0 -40 -1865 0 -1865 0 0 -110 0 -110 -150 0 -150 0 0 40 0 39 108 3 107 3 3 108 3 107 1904 0 1905 0 0 -40z m220 0 l0 -40 -45 0 -45 0 0 40 0 40 45 0 45 0 0 -40z m110 -220 l0 -260 -45 0 -45 0 0 260 0 260 45 0 45 0 0 -260z m110 220 l0 -40 -45 0 -45 0 0 40 0 40 45 0 45 0 0 -40z m220 0 l0 -40 -45 0 -45 0 0 40 0 40 45 0 45 0 0 -40z m110 -165 l0 -205 -155 0 -155 0 0 95 0 95 45 0 45 0 0 -55 0 -55 65 0 65 0 0 165 0 165 45 0 45 0 0 -205z m328 -162 l-3 -368 -373 -3 -373 -2 3 42 3 43 328 3 327 2 0 285 0 285 -110 0 -110 0 0 40 0 40 155 0 155 0 -2 -367z m-878 217 l0 -40 -1920 0 -1920 0 0 -175 0 -175 180 0 181 0 -3 63 -3 62 -162 3 -163 2 0 43 0 42 202 -2 203 -2 3 -151 3 -150 -261 0 -260 0 0 260 0 260 1960 0 1960 0 0 -40z m440 0 l0 -40 -155 0 -155 0 0 40 0 40 155 0 155 0 0 -40z m328 -217 l-3 -258 -482 -3 -483 -2 0 205 0 205 45 0 45 0 0 -160 0 -160 395 0 395 0 0 175 0 175 -55 0 -55 0 0 40 0 40 100 0 100 0 -2 -257z m-328 106 l0 -39 -45 0 -45 0 0 39 c0 39 1 40 38 43 50 4 52 3 52 -43z m220 -110 l0 -149 -265 0 -265 0 0 150 0 150 45 0 45 0 0 -105 0 -105 175 0 175 0 0 104 0 105 38 3 c20 2 40 2 45 0 4 -2 7 -70 7 -153z m-4938 99 c2 -33 8 -53 16 -54 6 -1 80 -2 162 -3 l150 -1 0 -40 0 -40 -205 0 -205 0 0 95 0 95 39 0 40 0 3 -52z m4278 -98 l0 -150 -45 0 -45 0 0 150 0 150 45 0 45 0 0 -150z m-3510 -105 l0 -45 -150 0 -150 0 0 45 0 45 150 0 150 0 0 -45z"></path> </g> </svg>
